<svg xmlns="http://www.w3.org/2000/svg" xmlns:xlink="http://www.w3.org/1999/xlink" width="138" height="138" viewBox="0 0 138 138">
  <defs>
    <radialGradient id="radial-gradient" cx="0.5" cy="0.5" r="0.5" gradientUnits="objectBoundingBox">
      <stop offset="0" stop-color="#09f"/>
      <stop offset="1" stop-color="#09f" stop-opacity="0"/>
    </radialGradient>
  </defs>
  <g id="Grupo_45" data-name="Grupo 45" transform="translate(-906 -2067)">
    <circle id="Elipse_4" data-name="Elipse 4" cx="69" cy="69" r="69" transform="translate(906 2067)" fill="url(#radial-gradient)"/>
    <path id="Caminho_56" data-name="Caminho 56" d="M96.415,48.207A48.207,48.207,0,1,1,48.207,0,48.208,48.208,0,0,1,96.415,48.207" transform="translate(927 2088)" fill="#002aa8"/>
    <path id="Caminho_57" data-name="Caminho 57" d="M89.51,55.61,58.537,41.617a.972.972,0,0,0-.8,0L26.781,55.61a.967.967,0,0,0,0,1.763l9.91,4.475v14c0,5.9,9.423,10.525,21.454,10.525S79.6,81.753,79.6,75.851v-14L83.462,60.1c.058,5.347.1,12.592.029,14.488a10.206,10.206,0,0,0-3.407,7.093c.039,1.073.539,3.567,4.329,3.567,2.367,0,3.413-1.01,3.875-1.857,1.083-1.984.047-4.9-1.286-6.976a6.515,6.515,0,0,0-1.585-1.806c.1-2.555.033-10.224-.028-15.379l4.122-1.86a.967.967,0,0,0,0-1.763M86.739,82.063c-.079.342-.291,1.252-2.326,1.252-2.051,0-2.261-.905-2.338-1.246-.43-1.866,1.493-5.044,2.36-5.8.854.752,2.739,3.926,2.3,5.789m-9.075-6.212c0,4.656-8.938,8.59-19.519,8.59s-19.519-3.934-19.519-8.59V74.606c3.347,3.631,10.728,6.105,19.519,6.105s16.172-2.474,19.519-6.105Zm0-5.663c0,4.656-8.938,8.588-19.519,8.588s-19.519-3.932-19.519-8.588V62.722l19.115,8.63a.967.967,0,0,0,.8,0L77.664,62.72ZM84.25,57.624,64.651,55.6c-.567-2.21-3.216-3.839-6.506-3.839-3.717,0-6.628,2.076-6.628,4.725s2.911,4.724,6.628,4.724c3.2,0,5.8-1.547,6.456-3.669l16.14,1.668-22.6,10.2-20.1-9.077h0l-8.5-3.839L58.139,43.561,86.76,56.492ZM62.838,56.486c0,1.511-2.148,2.788-4.692,2.788S53.453,58,53.453,56.486,55.6,53.7,58.145,53.7s4.692,1.277,4.692,2.789" transform="translate(916.789 2072.468)" fill="#fff"/>
    <rect id="Retângulo_11" data-name="Retângulo 11" width="96" height="96" transform="translate(927 2088)" fill="none"/>
  </g>
</svg>
