<svg xmlns="http://www.w3.org/2000/svg" xmlns:xlink="http://www.w3.org/1999/xlink" width="138" height="138" viewBox="0 0 138 138">
  <defs>
    <radialGradient id="radial-gradient" cx="0.5" cy="0.5" r="0.5" gradientUnits="objectBoundingBox">
      <stop offset="0" stop-color="#09f"/>
      <stop offset="1" stop-color="#09f" stop-opacity="0"/>
    </radialGradient>
  </defs>
  <g id="Grupo_42" data-name="Grupo 42" transform="translate(-906 -2803)">
    <circle id="Elipse_2" data-name="Elipse 2" cx="69" cy="69" r="69" transform="translate(906 2803)" fill="url(#radial-gradient)"/>
    <path id="Caminho_34" data-name="Caminho 34" d="M96.415,48.207A48.207,48.207,0,1,1,48.207,0,48.208,48.208,0,0,1,96.415,48.207" transform="translate(927 2824)" fill="#002aa8"/>
    <g id="Grupo_41" data-name="Grupo 41" transform="translate(0.69 2.07)">
      <path id="Caminho_35" data-name="Caminho 35" d="M84.186,81.43a.787.787,0,0,1-.151-.015.767.767,0,0,1-.6-.9,10.248,10.248,0,0,1,2.826-5.723c.436-.5.931-1.068,1.467-1.8,2.405-3.3,3.878-6.132,3.791-10.042A14.049,14.049,0,0,0,77.19,49.024a.767.767,0,0,1-.023-1.533A15.474,15.474,0,0,1,88.291,51.9,15.759,15.759,0,0,1,93.05,62.911c.1,4.327-1.563,7.519-4.085,10.979-.575.789-1.093,1.383-1.551,1.908a8.793,8.793,0,0,0-2.477,5.015.766.766,0,0,1-.751.617" transform="translate(897.326 2804.198)" fill="#fff"/>
      <path id="Caminho_36" data-name="Caminho 36" d="M66.246,101.224a.766.766,0,0,1,0-1.533H80.022a.766.766,0,1,1,.038,1.532H66.246Z" transform="translate(901.472 2784.406)" fill="#fff"/>
      <path id="Caminho_37" data-name="Caminho 37" d="M79.907,104.7H65.893a.766.766,0,0,1,0-1.533H79.141v-2.709a.766.766,0,1,1,1.532,0v3.476a.766.766,0,0,1-.766.766" transform="translate(901.605 2784.406)" fill="#fff"/>
      <path id="Caminho_38" data-name="Caminho 38" d="M74.959,88.438H60.945a.766.766,0,0,1-.766-.766V80.74A8.751,8.751,0,0,0,57.716,75.8c-.457-.524-.975-1.118-1.551-1.908-2.521-3.461-4.181-6.652-4.084-10.979A15.761,15.761,0,0,1,56.839,51.9a15.481,15.481,0,0,1,11.124-4.412.766.766,0,0,1-.011,1.533h-.012A14.05,14.05,0,0,0,53.614,62.945C53.526,66.856,55,69.687,57.4,72.987c.536.735,1.031,1.3,1.468,1.8A10.248,10.248,0,0,1,61.7,80.513a.816.816,0,0,1,.014.15v6.241H74.193V84.168a.766.766,0,1,1,1.532,0v3.5a.766.766,0,0,1-.766.766" transform="translate(906.553 2804.198)" fill="#fff"/>
      <path id="Caminho_39" data-name="Caminho 39" d="M80.683,117.764h-3.5a.766.766,0,0,1,0-1.533h3.03l2.416-4.831a.766.766,0,1,1,1.371.685l-2.627,5.256a.766.766,0,0,1-.685.423" transform="translate(897.326 2780.127)" fill="#fff"/>
      <path id="Caminho_40" data-name="Caminho 40" d="M73.435,117.764h-3.5a.766.766,0,0,1-.685-.423l-2.627-5.256a.766.766,0,0,1,1.371-.685l2.416,4.831h3.03a.766.766,0,0,1,0,1.533" transform="translate(901.07 2780.127)" fill="#fff"/>
      <path id="Caminho_41" data-name="Caminho 41" d="M77.179,38.64a.766.766,0,0,1-.766-.766V34.151a.766.766,0,1,1,1.532,0v3.723a.766.766,0,0,1-.766.766" transform="translate(897.326 2809.546)" fill="#fff"/>
      <path id="Caminho_42" data-name="Caminho 42" d="M64.623,42.341a.769.769,0,0,1-.709-.473l-.67-1.619a.766.766,0,1,1,1.416-.587l.671,1.619a.767.767,0,0,1-.708,1.06" transform="translate(902.342 2807.344)" fill="#fff"/>
      <path id="Caminho_43" data-name="Caminho 43" d="M46.865,60.1a.766.766,0,0,1-.293-.058l-1.619-.671a.766.766,0,1,1,.587-1.416l1.619.671a.766.766,0,0,1-.294,1.475" transform="translate(909.434 2800.253)" fill="#fff"/>
      <path id="Caminho_44" data-name="Caminho 44" d="M45.247,85.472A.766.766,0,0,1,44.953,84l1.619-.671a.766.766,0,0,1,.587,1.416l-1.619.671a.766.766,0,0,1-.293.058" transform="translate(909.434 2790.632)" fill="#fff"/>
      <path id="Caminho_45" data-name="Caminho 45" d="M108.123,85.472a.766.766,0,0,1-.293-.058l-1.619-.671a.766.766,0,0,1,.587-1.416l1.619.671a.766.766,0,0,1-.294,1.475" transform="translate(886.208 2790.632)" fill="#fff"/>
      <path id="Caminho_46" data-name="Caminho 46" d="M106.5,60.1a.766.766,0,0,1-.294-1.475l1.619-.671a.766.766,0,0,1,.587,1.416l-1.619.671a.766.766,0,0,1-.293.058" transform="translate(886.208 2800.253)" fill="#fff"/>
      <path id="Caminho_47" data-name="Caminho 47" d="M89.326,42.341a.766.766,0,0,1-.708-1.06l.671-1.619a.766.766,0,0,1,1.416.587l-.671,1.619a.767.767,0,0,1-.708.473" transform="translate(892.721 2807.344)" fill="#fff"/>
      <path id="Caminho_48" data-name="Caminho 48" d="M53.126,48.6a.766.766,0,0,1-.542-.224l-2.632-2.632a.766.766,0,0,1,1.083-1.084l2.632,2.632a.766.766,0,0,1-.542,1.308" transform="translate(907.444 2805.355)" fill="#fff"/>
      <path id="Caminho_49" data-name="Caminho 49" d="M43.164,72.655H39.441a.766.766,0,0,1,0-1.533h3.723a.766.766,0,0,1,0,1.533" transform="translate(911.634 2795.238)" fill="#fff"/>
      <path id="Caminho_50" data-name="Caminho 50" d="M50.495,97.733a.766.766,0,0,1-.542-1.308l2.632-2.632a.767.767,0,0,1,1.084,1.084l-2.632,2.632a.763.763,0,0,1-.541.225" transform="translate(907.444 2786.727)" fill="#fff"/>
      <path id="Caminho_51" data-name="Caminho 51" d="M102.256,97.733a.764.764,0,0,1-.542-.225l-2.632-2.632a.766.766,0,0,1,1.083-1.084l2.632,2.632a.766.766,0,0,1-.542,1.308" transform="translate(888.816 2786.727)" fill="#fff"/>
      <path id="Caminho_52" data-name="Caminho 52" d="M112.644,72.655h-3.723a.766.766,0,0,1,0-1.533h3.723a.766.766,0,0,1,0,1.533" transform="translate(885.292 2795.238)" fill="#fff"/>
      <path id="Caminho_53" data-name="Caminho 53" d="M99.624,48.6a.766.766,0,0,1-.542-1.308l2.632-2.632a.766.766,0,1,1,1.083,1.084l-2.632,2.632a.766.766,0,0,1-.542.224" transform="translate(888.816 2805.355)" fill="#fff"/>
      <path id="Caminho_54" data-name="Caminho 54" d="M90.946,65.754a.767.767,0,0,1-.754-.635,9.757,9.757,0,0,0-4.406-6.557.766.766,0,1,1,.818-1.3,11.293,11.293,0,0,1,5.1,7.589.765.765,0,0,1-.623.887.745.745,0,0,1-.133.012" transform="translate(893.908 2800.535)" fill="#fff"/>
      <path id="Caminho_55" data-name="Caminho 55" d="M74.5,119.9H71a.766.766,0,0,1-.685-.423l-.876-1.752a.766.766,0,1,1,1.371-.685l.664,1.328H74.5a.766.766,0,0,1,0,1.533" transform="translate(900.001 2777.988)" fill="#fff"/>
    </g>
    <rect id="Retângulo_10" data-name="Retângulo 10" width="96" height="96" transform="translate(927 2824)" fill="none"/>
  </g>
</svg>
