<svg xmlns="http://www.w3.org/2000/svg" xmlns:xlink="http://www.w3.org/1999/xlink" width="237.328" height="39.243" viewBox="0 0 237.328 39.243">
  <defs>
    <clipPath id="clip-path">
      <rect id="Retângulo_1" data-name="Retângulo 1" width="237.328" height="39.243" fill="none"/>
    </clipPath>
  </defs>
  <g id="Grupo_1" data-name="Grupo 1" transform="translate(0 0)">
    <g id="Grupo_1-2" data-name="Grupo 1" transform="translate(0 0)" clip-path="url(#clip-path)">
      <path id="Caminho_1" data-name="Caminho 1" d="M48.43,24.951a9.375,9.375,0,0,1-4.13,8.163,16.352,16.352,0,0,1-6.506,2.645.373.373,0,0,1-.433-.118Q34.63,32.39,31.9,29.154a2.149,2.149,0,0,1-.138-.209,11.774,11.774,0,0,0,3.025-1A5.753,5.753,0,0,0,37.629,20.2a13.031,13.031,0,0,0-3.876-5.12A23.805,23.805,0,0,0,22.361,9.763a17.127,17.127,0,0,0-6.552-.045.36.36,0,0,1-.4-.118c-1.853-2.22-3.718-4.425-5.583-6.637a.616.616,0,0,1-.065-.126,14.979,14.979,0,0,1,2.318-.378A33.976,33.976,0,0,1,24.425,3.524,41.948,41.948,0,0,1,37.793,9.6a28.376,28.376,0,0,1,8.437,8.583,13.519,13.519,0,0,1,2.2,6.768" transform="translate(14.807 3.463)" fill="#fff"/>
      <path id="Caminho_2" data-name="Caminho 2" d="M38.727,32.978a23.243,23.243,0,0,1-3.378.458A36.645,36.645,0,0,1,22.517,31.82,43.447,43.447,0,0,1,13.4,27.9a33.362,33.362,0,0,1-9.315-7.652,17.586,17.586,0,0,1-3.71-6.919A9.613,9.613,0,0,1,1.641,5.215,10.829,10.829,0,0,1,5.55,1.8,18.67,18.67,0,0,1,10.642.01a.372.372,0,0,1,.413.164C12.869,2.328,14.677,4.483,16.5,6.63c.181.214.242.294-.1.36A9.482,9.482,0,0,0,12.613,8.58a5.564,5.564,0,0,0-2.094,6.147,11.409,11.409,0,0,0,3.043,4.989,21.862,21.862,0,0,0,7.908,5.072,22.931,22.931,0,0,0,7.778,1.644,15.106,15.106,0,0,0,3.214-.242.672.672,0,0,1,.765.254c1.689,2.031,3.393,4.047,5.094,6.068.118.138.242.282.405.466" transform="translate(0 0)" fill="#fff"/>
      <path id="Caminho_3" data-name="Caminho 3" d="M44.354,15.206l-2.167-.858c-3.524-1.357-4.475-2.666-4.475-4.339,0-2.122,1.717-3.252,4.022-3.252,2.348,0,4.115,1.264,5.467,3.841L51.812,8.02a10.885,10.885,0,0,0-10.3-6.778c-5.422,0-9.9,3.345-9.9,8.724,0,4.88,3.617,7.319,8,9.081l2.031.768c3.254,1.314,4.654,2.351,4.654,4.7,0,2.8-2.167,4.113-4.7,4.113a6.555,6.555,0,0,1-6.194-4.7l-5.014,2.3c1.13,4.7,5.693,8,11.3,8,5.379,0,11.075-3.161,11.075-9.668,0-4.563-2.8-7.1-8.409-9.356" transform="translate(46.105 1.884)" fill="#fff"/>
      <path id="Caminho_4" data-name="Caminho 4" d="M52.624,23.589a6.415,6.415,0,0,1-6.464-6.733,6.416,6.416,0,0,1,6.464-6.735,6.728,6.728,0,0,1,5.646,3.164L62.7,10.438A11.4,11.4,0,0,0,52.579,4.654c-6.192,0-12.384,4.249-12.384,12.2s6.192,12.2,12.384,12.2A11.489,11.489,0,0,0,62.7,23.272L58.27,20.426a6.716,6.716,0,0,1-5.646,3.164" transform="translate(60.976 7.06)" fill="#fff"/>
      <path id="Caminho_5" data-name="Caminho 5" d="M50.519,7.026h6.056V1.242H50.519Zm0,27.206h6.056V9.83H50.519Z" transform="translate(76.637 1.884)" fill="#fff"/>
      <path id="Caminho_6" data-name="Caminho 6" d="M82.3,1.219v12.26H82.21c-.586-1.311-3.3-3.617-7.5-3.617-5.469,0-11.3,4.067-11.3,12.2s5.832,12.2,11.3,12.2c4.2,0,6.914-2.306,7.5-3.614h.133v3.614H88.4V1.219ZM75.928,28.843a6.416,6.416,0,0,1-6.554-6.776,6.558,6.558,0,1,1,13.109,0,6.39,6.39,0,0,1-6.554,6.776" transform="translate(96.19 1.849)" fill="#fff"/>
      <path id="Caminho_7" data-name="Caminho 7" d="M91.257,4.654v13.29c0,3.433-1.941,5.691-5.014,5.691-3.164,0-5.019-2.258-5.019-5.691V4.654H75.168V18.935c0,7.141,4.067,10.121,8.86,10.121A8.136,8.136,0,0,0,91.257,25.4v3.657h6.056V4.654Z" transform="translate(114.03 7.06)" fill="#fff"/>
      <path id="Caminho_8" data-name="Caminho 8" d="M97.777,23.589a6.415,6.415,0,0,1-6.464-6.733,6.416,6.416,0,0,1,6.464-6.735,6.728,6.728,0,0,1,5.646,3.164l4.432-2.847A11.4,11.4,0,0,0,97.729,4.654c-6.189,0-12.381,4.249-12.381,12.2s6.192,12.2,12.381,12.2a11.491,11.491,0,0,0,10.126-5.784l-4.432-2.847a6.716,6.716,0,0,1-5.646,3.164" transform="translate(129.473 7.06)" fill="#fff"/>
      <path id="Caminho_9" data-name="Caminho 9" d="M74.3,28.4v5.862H55.171V1.219H73.883V7.086H61.549v7.679h10.38v5.771H61.549V28.4Z" transform="translate(83.695 1.848)" fill="#fff"/>
    </g>
  </g>
</svg>
