<svg xmlns="http://www.w3.org/2000/svg" xmlns:xlink="http://www.w3.org/1999/xlink" width="138" height="138" viewBox="0 0 138 138">
  <defs>
    <radialGradient id="radial-gradient" cx="0.5" cy="0.5" r="0.5" gradientUnits="objectBoundingBox">
      <stop offset="0" stop-color="#09f"/>
      <stop offset="1" stop-color="#09f" stop-opacity="0"/>
    </radialGradient>
  </defs>
  <g id="Grupo_44" data-name="Grupo 44" transform="translate(-906 -3169)">
    <circle id="Elipse_1" data-name="Elipse 1" cx="69" cy="69" r="69" transform="translate(906 3169)" fill="url(#radial-gradient)"/>
    <path id="Caminho_17" data-name="Caminho 17" d="M95.82,47.91A47.91,47.91,0,1,1,47.91,0,47.91,47.91,0,0,1,95.82,47.91" transform="translate(927 3190)" fill="#002aa8"/>
    <g id="Grupo_43" data-name="Grupo 43" transform="translate(1.162 1.546)">
      <path id="Caminho_18" data-name="Caminho 18" d="M70.168,66.242H65.139a.8.8,0,0,1-.618-.291c-3.263-3.962-5.211-10.646-5.211-17.879a30.721,30.721,0,0,1,3.754-14.179c1.771-3.256,4.567-6.735,7.1-6.735a.8.8,0,1,1,0,1.6c-2.892,0-9.257,9.337-9.257,19.313,0,6.7,1.718,12.851,4.612,16.571h4.644a.8.8,0,1,1,0,1.6" transform="translate(903.583 3180.296)" fill="#fff"/>
      <path id="Caminho_19" data-name="Caminho 19" d="M81.438,66.242H76.41a.8.8,0,1,1,0-1.6h4.644c2.894-3.72,4.613-9.875,4.613-16.571,0-9.976-6.365-19.313-9.257-19.313a.8.8,0,1,1,0-1.6c2.535,0,5.331,3.479,7.1,6.735a30.728,30.728,0,0,1,3.754,14.179c0,7.233-1.948,13.918-5.211,17.879a.8.8,0,0,1-.618.291" transform="translate(897.341 3180.296)" fill="#fff"/>
      <path id="Caminho_20" data-name="Caminho 20" d="M72.9,59a6.077,6.077,0,0,1-4.269-1.747,6.366,6.366,0,0,1-.41-8.64.8.8,0,1,1,1.221,1.034,4.766,4.766,0,0,0,.306,6.461A4.481,4.481,0,0,0,73,57.394a4.636,4.636,0,0,0,4.465-4.787,4.712,4.712,0,0,0-1.421-3.286,4.5,4.5,0,0,0-3.258-1.292.8.8,0,1,1-.036-1.6,6.069,6.069,0,0,1,4.412,1.746,6.3,6.3,0,0,1,1.9,4.4,6.236,6.236,0,0,1-6.028,6.424L72.9,59" transform="translate(900.745 3172.917)" fill="#fff"/>
      <path id="Caminho_21" data-name="Caminho 21" d="M81.138,83.211H70.853a.8.8,0,1,1,0-1.6H81.138a.8.8,0,1,1,0,1.6" transform="translate(899.469 3159.442)" fill="#fff"/>
      <path id="Caminho_22" data-name="Caminho 22" d="M52.7,84.866a.8.8,0,0,1-.8-.8V79.972a8.278,8.278,0,0,1,3.55-6.793l2.05-1.427a.8.8,0,0,1,.913,1.314l-2.05,1.426a6.679,6.679,0,0,0-2.863,5.48v2.7l4.282-2.5a.8.8,0,1,1,.806,1.382l-5.486,3.2a.8.8,0,0,1-.4.109" transform="translate(906.42 3163.272)" fill="#fff"/>
      <path id="Caminho_23" data-name="Caminho 23" d="M96.713,84.866a.8.8,0,0,1-.4-.109l-5.486-3.2a.8.8,0,1,1,.806-1.382l4.282,2.5v-2.7a6.679,6.679,0,0,0-2.864-5.481L91,73.066a.8.8,0,0,1,.913-1.314l2.05,1.427a8.279,8.279,0,0,1,3.55,6.794v4.093a.8.8,0,0,1-.8.8" transform="translate(891.666 3163.272)" fill="#fff"/>
      <path id="Caminho_24" data-name="Caminho 24" d="M67.52,98.478a.833.833,0,0,1-.111-.007.8.8,0,0,1-.683-.9l1.143-8.228a.8.8,0,0,1,1.585.22l-1.143,8.229a.8.8,0,0,1-.791.69" transform="translate(900.746 3156.746)" fill="#fff"/>
      <path id="Caminho_25" data-name="Caminho 25" d="M84.3,96.7a.8.8,0,0,1-.792-.695l-.856-6.453a.8.8,0,0,1,1.586-.21L85.1,95.8a.8.8,0,0,1-.688.9.882.882,0,0,1-.106.007" transform="translate(894.646 3156.746)" fill="#fff"/>
      <path id="Caminho_26" data-name="Caminho 26" d="M90.805,105.321a.8.8,0,0,1-.795-.716,4.444,4.444,0,0,0-4.431-3.984,4.492,4.492,0,0,0-.631.046.8.8,0,0,1-.225-1.585,6.194,6.194,0,0,1,.856-.061,6.04,6.04,0,0,1,6.023,5.416.8.8,0,0,1-.712.88c-.028,0-.057,0-.085,0" transform="translate(894.114 3152.774)" fill="#fff"/>
      <path id="Caminho_27" data-name="Caminho 27" d="M77.521,105.911a.8.8,0,0,1-.8-.8,6.081,6.081,0,0,1,5.2-6,.8.8,0,1,1,.225,1.585,4.473,4.473,0,0,0-3.826,4.412.8.8,0,0,1-.8.8" transform="translate(896.916 3152.741)" fill="#fff"/>
      <path id="Caminho_28" data-name="Caminho 28" d="M104.371,114.6a.8.8,0,0,1-.8-.8,6.656,6.656,0,0,0-6.286-6.514,6.014,6.014,0,0,0-2.449.517.8.8,0,1,1-.647-1.463,7.6,7.6,0,0,1,3.1-.654,8.212,8.212,0,0,1,7.886,8.114.8.8,0,0,1-.8.8" transform="translate(890.408 3150.22)" fill="#fff"/>
      <path id="Caminho_29" data-name="Caminho 29" d="M58.755,105.888a.765.765,0,0,1-.139-.012.8.8,0,0,1-.65-.926,5.815,5.815,0,0,1,5.74-4.818.8.8,0,1,1,0,1.6,4.218,4.218,0,0,0-4.163,3.494.8.8,0,0,1-.787.662" transform="translate(904.103 3152.348)" fill="#fff"/>
      <path id="Caminho_30" data-name="Caminho 30" d="M43.812,114.887a.8.8,0,0,1-.8-.8c0-4.078,3.791-7.657,8.114-7.657a7.68,7.68,0,0,1,2.127.3.8.8,0,1,1-.444,1.537,6.06,6.06,0,0,0-1.683-.239c-3.47,0-6.514,2.83-6.514,6.057a.8.8,0,0,1-.8.8" transform="translate(909.826 3149.936)" fill="#fff"/>
      <path id="Caminho_31" data-name="Caminho 31" d="M59.8,112.556a.8.8,0,0,1-.615-.288,5.807,5.807,0,0,1-1.264-4.738.8.8,0,1,1,1.576.276,4.207,4.207,0,0,0,.917,3.437.8.8,0,0,1-.614,1.312" transform="translate(904.15 3149.768)" fill="#fff"/>
    </g>
    <rect id="Retângulo_8" data-name="Retângulo 8" width="96" height="96" transform="translate(927 3190)" fill="none"/>
  </g>
</svg>
