<svg xmlns="http://www.w3.org/2000/svg" xmlns:xlink="http://www.w3.org/1999/xlink" width="138" height="136" viewBox="0 0 138 136">
  <defs>
    <radialGradient id="radial-gradient" cx="0.5" cy="0.5" r="0.5" gradientUnits="objectBoundingBox">
      <stop offset="0" stop-color="#09f"/>
      <stop offset="1" stop-color="#09f" stop-opacity="0"/>
    </radialGradient>
  </defs>
  <g id="Grupo_46" data-name="Grupo 46" transform="translate(-906 -2436)">
    <ellipse id="Elipse_3" data-name="Elipse 3" cx="69" cy="68" rx="69" ry="68" transform="translate(906 2436)" fill="url(#radial-gradient)"/>
    <path id="Caminho_32" data-name="Caminho 32" d="M96.415,48.207A48.207,48.207,0,1,1,48.207,0,48.208,48.208,0,0,1,96.415,48.207" transform="translate(927 2456)" fill="#002aa8"/>
    <path id="Caminho_33" data-name="Caminho 33" d="M59.534,88.548a.866.866,0,0,0,1.227,0l10.531-10.53a1.47,1.47,0,0,1,2.076,0l.358.358a1.608,1.608,0,0,1,.409,1.289,6.1,6.1,0,1,0,5.447-5.515,1.492,1.492,0,0,1-1.227-.41L78,73.386a1.47,1.47,0,0,1,0-2.076l10.549-10.55a.868.868,0,0,0,0-1.227l-10.54-10.54a1.472,1.472,0,0,1,0-2.076l.35-.348a1.526,1.526,0,0,1,1.222-.409,6.134,6.134,0,0,0,5.847-2.908,6.071,6.071,0,0,0-.006-6.338h0A6.1,6.1,0,0,0,74.13,40.645a1.61,1.61,0,0,1-.409,1.294l-.345.345a1.5,1.5,0,0,1-2.076,0L60.761,31.746a.867.867,0,0,0-1.227,0L48.984,42.295a3.209,3.209,0,0,0,0,4.532l.355.355a3.256,3.256,0,0,0,2.625.91,4.358,4.358,0,1,1-3.887,3.941,3.328,3.328,0,0,0-.912-2.672L46.807,49a3.2,3.2,0,0,0-4.532,0l-10.53,10.53a.866.866,0,0,0,0,1.227ZM43.5,50.231a1.47,1.47,0,0,1,2.076,0l.358.358a1.608,1.608,0,0,1,.409,1.289,6.1,6.1,0,1,0,5.447-5.515,1.5,1.5,0,0,1-1.226-.409l-.354-.355a1.469,1.469,0,0,1,0-2.076l9.934-9.936,9.926,9.926a3.281,3.281,0,0,0,4.531,0l.345-.344a3.333,3.333,0,0,0,.91-2.682,4.367,4.367,0,1,1,8.089,1.852,4.4,4.4,0,0,1-4.2,2.093,3.242,3.242,0,0,0-2.619.91l-.349.348a3.209,3.209,0,0,0,0,4.532l9.926,9.926-9.935,9.935a3.208,3.208,0,0,0,0,4.532l.355.355a3.253,3.253,0,0,0,2.625.909,4.359,4.359,0,1,1-3.887,3.942,3.329,3.329,0,0,0-.913-2.672l-.358-.358a3.2,3.2,0,0,0-4.532,0l-9.916,9.916-26.56-26.56Z" transform="translate(914.509 2443.509)" fill="#fff"/>
    <rect id="Retângulo_9" data-name="Retângulo 9" width="96" height="97" transform="translate(927 2456)" fill="none"/>
  </g>
</svg>
